<svg width="210" height="94" viewBox="0 0 210 94" fill="none" xmlns="http://www.w3.org/2000/svg">
<rect width="210" height="94" fill="#E4000F"/>
<path d="M196 17H14V77H196V17Z" fill="#E4000F"/>
<path d="M44.0809 67.6798C31.1442 67.6754 22.5 58.347 22.5 47.0367C22.5 35.7263 31.1639 26.2909 44.0612 26.3199H165.939C178.836 26.2909 187.5 35.7263 187.5 47.0367C187.5 58.347 178.856 67.6754 165.919 67.6798H44.0809ZM44.1203 31.4077C33.8788 31.4277 27.5923 38.3928 27.5923 47.0099C27.5923 55.6248 33.8393 62.6478 44.1203 62.6099H165.88C176.161 62.6456 182.41 55.6248 182.41 47.0099C182.41 38.395 176.123 31.43 165.882 31.4099L44.1203 31.4077ZM172.429 38.6804C173.36 38.6804 173.823 39.0014 173.823 39.6369C173.823 40.0738 173.555 40.4038 173.111 40.5175L173.84 42.0001H172.957L172.333 40.6401H171.945V42.0001H171.149V38.6804H172.429ZM172.357 37.3828C170.731 37.3828 169.412 38.725 169.412 40.3793C169.412 42.0336 170.731 43.3758 172.357 43.3758C173.983 43.3758 175.302 42.0336 175.302 40.3793C175.302 38.725 173.983 37.3828 172.357 37.3828ZM174.739 40.3815C174.739 41.7192 173.671 42.805 172.357 42.805C171.042 42.805 169.975 41.7192 169.975 40.3815C169.975 39.0438 171.042 37.958 172.357 37.958C173.671 37.958 174.739 39.0416 174.739 40.3815ZM171.945 40.1541H172.333C172.786 40.1541 173.005 40.0136 173.005 39.6837C173.005 39.3381 172.771 39.1887 172.293 39.1887H171.945V40.1541ZM105.386 48.2673C105.377 47.1325 105.401 46.3745 105.767 45.7279C106.216 44.9297 107.042 44.5507 107.792 44.5463H107.789C108.539 44.5507 109.365 44.9297 109.814 45.7279C110.18 46.3767 110.195 47.1348 110.186 48.2696L105.386 48.2673ZM110.167 52.1712C110.167 52.1712 110.171 52.2292 110.171 52.956C110.171 55.3238 108.64 55.85 107.789 55.85C106.939 55.85 105.381 55.3238 105.381 52.956C105.381 52.2471 105.386 50.2828 105.386 50.2828C105.386 50.2828 116.225 50.2873 116.225 50.2805C116.225 46.2652 112.415 42.9387 107.735 42.9387C103.054 42.9387 99.2613 46.1938 99.2613 50.2092C99.2613 54.2246 103.054 57.4775 107.735 57.4775C111.617 57.4775 114.898 55.2234 115.899 52.1667L110.167 52.1712ZM128.272 43.155C130.424 43.0926 134.789 44.5262 134.758 49.6519C134.754 50.5615 134.756 56.6972 134.756 56.6972H129.039C129.039 56.6972 129.039 49.0031 129.039 48.1938C129.039 47.0656 127.979 45.8104 126.41 45.8104C124.843 45.8104 123.678 47.0656 123.678 48.1938C123.678 48.7467 123.684 56.6972 123.684 56.6972H117.972L117.976 43.7503L123.686 43.7459C123.686 43.7459 123.68 44.7871 123.686 45.1081C124.786 44.0402 126.373 43.2108 128.272 43.155H128.272ZM81.5084 43.155C83.6601 43.0926 88.0249 44.5262 87.9943 49.6519C87.9899 50.5615 87.992 56.6972 87.992 56.6972H82.2752C82.2752 56.6972 82.2752 49.0031 82.2752 48.1938C82.2752 47.0656 81.2147 45.8104 79.6458 45.8104C78.0791 45.8104 76.9134 47.0656 76.9134 48.1938C76.9134 48.7467 76.92 56.6972 76.92 56.6972H71.2076L71.2054 43.7503L76.9221 43.7459C76.9221 43.7459 76.9156 44.7871 76.9221 45.1081C78.0221 44.0402 79.6063 43.2108 81.5083 43.155H81.5084ZM147.16 37.2312H152.84V56.7016H147.152C147.152 56.7016 147.149 56.0729 147.149 55.9525C144.947 57.3594 142.462 57.3571 140.528 56.4386C140.008 56.1933 136.592 54.5256 136.592 50.0197C136.592 46.6019 139.761 42.8697 143.909 43.2398C145.274 43.3624 146.244 43.8685 147.165 44.3947C147.16 41.3982 147.16 37.2312 147.16 37.2312H147.16ZM147.202 50.1624C147.202 50.1624 147.202 48.5393 147.202 47.8482C147.202 45.8461 145.844 45.3355 144.95 45.3355C144.034 45.3355 142.693 45.8461 142.693 47.8482C142.693 48.5126 142.695 50.1558 142.695 50.1558C142.695 50.1558 142.693 51.7699 142.693 52.4588C142.693 54.4587 144.034 54.9827 144.947 54.9827C145.844 54.9827 147.204 54.4587 147.204 52.4588C147.204 51.6272 147.202 50.1624 147.202 50.1624H147.202ZM165.435 50.1245C165.435 50.1245 165.433 52.0821 165.433 52.8669C165.433 54.9314 164.234 55.7831 163.081 55.7831C161.927 55.7831 160.724 54.9314 160.724 52.8669C160.724 52.0821 160.726 50.0755 160.726 50.0755C160.726 50.0755 160.73 48.1603 160.73 47.3755C160.73 45.3199 161.936 44.4749 163.082 44.4749C164.23 44.4749 165.433 45.3199 165.433 47.3755C165.433 48.1603 165.43 49.6117 165.437 50.1312L165.435 50.1245ZM163.123 42.8697C158.478 42.8697 154.713 46.1248 154.713 50.1402C154.713 54.1555 158.48 57.4106 163.123 57.4106C167.768 57.4106 171.533 54.1555 171.533 50.1402C171.533 46.1248 167.768 42.8697 163.123 42.8697ZM62.2699 41.2064V37.2267H68.037V41.2064H62.2699ZM62.283 56.7016V43.7526L68.037 43.7549V56.7017L62.283 56.7016ZM91.1518 56.7016L91.154 43.7793H88.025V41.8575L91.1562 41.8552L91.1518 39.2332H96.9102V41.8529H100.026V43.7793H96.9102L96.9146 56.7016L91.1518 56.7016ZM38.8659 56.7016L38.8681 37.2312H44.8303L53.0779 50.809L53.0735 37.2312H58.9897V56.7016H53.0823L44.7908 43.1238V56.7016H38.8659Z" fill="white"/>
</svg>
