<svg width="50" height="44" viewBox="0 0 50 44" fill="none" xmlns="http://www.w3.org/2000/svg">
<path d="M45.8438 25.8946L49.9473 8.0196C50.2436 6.72899 49.2527 5.5 47.9158 5.5H13.8201L13.0245 1.64914C12.8262 0.689305 11.9731 0 10.9834 0H2.08333C0.932726 0 0 0.923398 0 2.0625V3.4375C0 4.5766 0.932726 5.5 2.08333 5.5H8.14957L14.2475 35.0139C12.7886 35.8445 11.8056 37.4019 11.8056 39.1875C11.8056 41.8454 13.9819 44 16.6667 44C19.3514 44 21.5278 41.8454 21.5278 39.1875C21.5278 37.8405 20.9681 36.6236 20.0674 35.75H38.2659C37.3652 36.6236 36.8056 37.8405 36.8056 39.1875C36.8056 41.8454 38.982 44 41.6667 44C44.3514 44 46.5278 41.8454 46.5278 39.1875C46.5278 37.2821 45.409 35.6355 43.7866 34.8558L44.2655 32.7696C44.5617 31.479 43.5708 30.25 42.234 30.25H18.9338L18.3656 27.5H43.8122C44.785 27.5 45.6282 26.8336 45.8438 25.8946Z" fill="#0D0D0D"/>
</svg>
